<svg xmlns="http://www.w3.org/2000/svg" viewBox="-49 141 512 512"><path d="M442.729 253.971L210.261 141.746a7.503 7.503 0 0 0-6.521 0L-28.729 253.971a7.5 7.5 0 0 0-4.239 6.754v272.549a7.5 7.5 0 0 0 4.239 6.754l232.468 112.226a7.504 7.504 0 0 0 6.522 0l232.468-112.226a7.5 7.5 0 0 0 4.239-6.754V260.726a7.503 7.503 0 0 0-4.239-6.755zM207 156.828l215.217 103.897-62.387 30.118a7.434 7.434 0 0 0-1.27-.8l-213.755-103.19L207 156.828zm-79.133 38.505l214.904 103.746-44.015 21.249L83.941 216.624l43.926-21.291zm178.819 137.823l41.113-19.848v78.546l-41.113 19.848v-78.546zM214.5 633.551V377.659l51.873-25.042a7.5 7.5 0 1 0-6.522-13.508L207 364.624l-20.796-10.04c-3.731-1.803-8.214-.237-10.015 3.493s-.237 8.214 3.493 10.015l19.818 9.567v255.892L-17.968 528.567V272.674l165.6 79.945a7.463 7.463 0 0 0 3.255.748 7.5 7.5 0 0 0 3.266-14.256l-162.37-78.386 74.505-35.968L291.582 333.52c.033.046.07.087.104.132v89.999a7.502 7.502 0 0 0 10.761 6.754l56.113-27.089a7.499 7.499 0 0 0 4.239-6.754v-90.495l69.169-33.392v255.893L214.5 633.551z" fill="#b5a377"/><path d="M43.926 499.48L9.811 483.011a7.5 7.5 0 0 0-6.522 13.508l34.115 16.469a7.463 7.463 0 0 0 3.255.748 7.5 7.5 0 0 0 6.759-4.241 7.499 7.499 0 0 0-3.492-10.015zm31.397-20.438L9.858 447.438a7.501 7.501 0 0 0-6.521 13.509l65.465 31.604a7.477 7.477 0 0 0 3.255.748 7.501 7.501 0 0 0 3.266-14.257z" fill="#b5a377"/></svg>