<svg xmlns="http://www.w3.org/2000/svg" viewBox="-49 141 512 512"><path d="M319.226 289.299H-17.452c-17.396 0-31.548 14.152-31.548 31.548v224.452c0 17.396 14.152 31.548 31.548 31.548h336.677c17.396 0 31.549-14.152 31.549-31.548V320.847c0-17.396-14.152-31.548-31.548-31.548zm16.548 256c0 9.124-7.424 16.548-16.549 16.548H-17.452c-9.125 0-16.548-7.424-16.548-16.548V320.847c0-9.125 7.423-16.548 16.548-16.548h336.677c9.125 0 16.549 7.423 16.549 16.548v224.452z" fill="#b5a377"/><path d="M22.629 440.572h32.064c12.976 0 23.532-10.557 23.532-23.532v-16.032c0-12.976-10.557-23.532-23.532-23.532H22.629c-12.976 0-23.532 10.557-23.532 23.532v16.032c0 12.976 10.556 23.532 23.532 23.532zm40.597-39.564v16.032c0 4.705-3.828 8.532-8.532 8.532h-8.532v-33.097h8.532c4.704.001 8.532 3.828 8.532 8.533zm-49.129 0c0-4.705 3.828-8.532 8.532-8.532h8.532v33.097h-8.532c-4.705 0-8.532-3.827-8.532-8.532v-16.033zm-7.5 79.645h48.097c4.142 0 7.5-3.357 7.5-7.5s-3.358-7.5-7.5-7.5H6.597c-4.142 0-7.5 3.357-7.5 7.5s3.358 7.5 7.5 7.5zm80.161 0h48.097c4.142 0 7.5-3.357 7.5-7.5s-3.358-7.5-7.5-7.5H86.758c-4.142 0-7.5 3.357-7.5 7.5s3.358 7.5 7.5 7.5zm80.161 25.08H6.597a7.5 7.5 0 0 0-7.5 7.5 7.5 7.5 0 0 0 7.5 7.5H166.92a7.5 7.5 0 1 0-.001-15zm48.097-40.08h-48.097c-4.142 0-7.5 3.357-7.5 7.5s3.358 7.5 7.5 7.5h48.097c4.142 0 7.5-3.357 7.5-7.5s-3.358-7.5-7.5-7.5zm80.161 0H247.08c-4.142 0-7.5 3.357-7.5 7.5s3.358 7.5 7.5 7.5h48.097c4.142 0 7.5-3.357 7.5-7.5s-3.358-7.5-7.5-7.5zm-32.064-128.257c-13.182 0-24.871 6.486-32.064 16.427-7.194-9.942-18.883-16.427-32.064-16.427-21.816 0-39.564 17.748-39.564 39.564s17.749 39.564 39.564 39.564c13.182 0 24.871-6.486 32.064-16.427 7.194 9.942 18.883 16.427 32.064 16.427 21.816 0 39.564-17.748 39.564-39.564s-17.748-39.564-39.564-39.564zm-64.129 64.128c-13.545 0-24.564-11.02-24.564-24.564s11.02-24.564 24.564-24.564 24.564 11.02 24.564 24.564-11.019 24.564-24.564 24.564zm64.129 0c-13.545 0-24.564-11.02-24.564-24.564s11.02-24.564 24.564-24.564 24.564 11.02 24.564 24.564-11.019 24.564-24.564 24.564z" fill="#b5a377"/><path d="M431.452 217.153H94.774c-17.396 0-31.549 14.152-31.549 31.548v16.032a7.5 7.5 0 0 0 7.5 7.5H448v33.098h-72.661c-4.142 0-7.5 3.357-7.5 7.5s3.358 7.5 7.5 7.5H448v152.822c0 9.125-7.423 16.548-16.548 16.548h-56.115c-4.142 0-7.5 3.357-7.5 7.5s3.358 7.5 7.5 7.5h56.115c17.396 0 31.548-14.152 31.548-31.548V248.701c0-17.395-14.152-31.548-31.548-31.548zm-353.226 40.08v-8.532c0-9.124 7.424-16.548 16.549-16.548h336.677c9.125 0 16.548 7.424 16.548 16.548v8.532H78.226z" fill="#b5a377"/></svg>