<svg xmlns="http://www.w3.org/2000/svg" viewBox="0 0 432 432"><path d="M108.938 97.839c57.839-52.321 144.402-53.118 203.042-5.36l-46.48 1.762c-6 .238-10.641 5.199-10.402 11.199.242 5.84 5.043 10.399 10.8 10.399h.399l71.363-2.637c5.84-.242 10.399-4.961 10.399-10.801v-1.281l-2.641-70.559c-.238-6-5.277-10.64-11.199-10.402-6 .242-10.641 5.199-10.399 11.199L325.5 75.6c-29.043-23.761-64.801-37.519-103.043-39.441-47.359-2.399-92.879 13.84-128 45.68A177.698 177.698 0 0 0 41.02 255.518c1.199 4.961 5.597 8.242 10.48 8.242.879 0 1.68-.082 2.559-.32 5.761-1.441 9.359-7.281 7.921-13.039-13.441-55.68 4.477-114.16 46.958-152.562zm280.242 78.722c-1.442-5.761-7.282-9.359-13.039-7.922-5.762 1.442-9.364 7.282-7.922 13.039 13.519 55.68-4.481 114.161-46.961 152.563-29.84 26.961-67.278 40.238-104.559 40.238-35.601 0-71.121-12.078-99.761-35.918l47.042-4.242c5.918-.559 10.317-5.758 9.758-11.758-.558-6-5.758-10.32-11.758-9.761l-71.121 6.402c-5.921.558-10.32 5.758-9.761 11.758l6.402 71.121c.48 5.597 5.199 9.84 10.719 9.84.32 0 .64 0 .961-.082 5.918-.559 10.32-5.758 9.758-11.758l-3.84-43.281c29.043 23.519 64.64 37.199 102.64 39.121 3.039.16 6.082.238 9.039.238 44.082 0 86-16.16 118.961-45.918 48.321-43.762 68.801-110.242 53.442-173.68zm0 0" fill="#b2a177"/></svg>