<svg xmlns="http://www.w3.org/2000/svg" viewBox="-49 141 512 512"><path d="M455 212.232a7.5 7.5 0 0 0-5.559-6.843l-240.698-64.136a7.514 7.514 0 0 0-3.865 0l-240.322 64.136A7.503 7.503 0 0 0-41 212.221c-.167 3-3.758 74.526 24.369 164.954C-.1 430.32 24.033 478.844 55.096 521.401c38.858 53.234 88.698 97.185 148.134 130.636a7.497 7.497 0 0 0 7.196.088c59.536-31.624 109.459-74.46 148.38-127.319 31.099-42.237 55.258-90.903 71.806-144.648 28.143-91.403 24.554-164.844 24.388-167.926zM416.12 376.25c-16.08 52.042-39.491 99.117-69.583 139.92-35.099 47.591-79.482 86.764-132.035 116.593v-38.585c68.129-43.011 119.511-103.897 152.726-181.048 27.349-63.523 36.261-123.823 38.921-163.223a7.499 7.499 0 0 0-5.553-7.753l-15.295-4.075a7.501 7.501 0 0 0-3.862 14.496l9.287 2.475c-3.077 38.196-12.153 93.793-37.277 152.148-31.816 73.903-80.874 132.291-145.855 173.619a420.02 420.02 0 0 1-19.119-13.416 7.5 7.5 0 0 0-8.96 12.032 433.468 433.468 0 0 0 19.984 14v39.085c-52.577-31.452-96.972-71.664-132.082-119.684-30.083-41.145-53.484-88.109-69.556-139.584-23.134-74.096-24.266-136.558-24.026-154.811l225.663-60.223v34.259L13.511 242.11a7.502 7.502 0 0 0-5.548 7.782c1.937 27.106 7.389 69.279 22.368 116.267 24.763 77.682 66.353 142.489 123.614 192.622a7.471 7.471 0 0 0 4.939 1.857 7.5 7.5 0 0 0 4.944-13.144c-55.176-48.306-95.282-110.849-119.204-185.89-13.438-42.155-18.972-80.313-21.213-106.608l183.413-48.948 142.195 37.889a7.5 7.5 0 0 0 3.862-14.496l-138.38-36.873v-34.256l225.661 60.129c.248 18.566-.835 82.701-24.042 157.809z" fill="#b5a377"/><path d="M303.205 309.357c-6.291 0-12.202 2.449-16.641 6.895l-95.597 95.593-52.19-52.186c-4.441-4.448-10.353-6.898-16.643-6.898-6.291 0-12.201 2.449-16.639 6.893a23.38 23.38 0 0 0-6.897 16.643 23.369 23.369 0 0 0 6.895 16.64l68.829 68.83c4.442 4.448 10.353 6.898 16.644 6.898s12.201-2.449 16.641-6.895l112.236-112.236a23.371 23.371 0 0 0 6.897-16.642c0-6.288-2.449-12.198-6.892-16.637-4.442-4.449-10.353-6.898-16.643-6.898zm6.031 29.567L196.995 451.165c-1.608 1.61-3.749 2.497-6.03 2.497s-4.421-.887-6.033-2.5l-68.834-68.835a8.47 8.47 0 0 1-2.499-6.031c0-2.28.888-4.42 2.504-6.037 1.608-1.61 3.75-2.497 6.03-2.497s4.42.887 6.033 2.5l57.497 57.493a7.501 7.501 0 0 0 10.607 0l100.905-100.901c1.608-1.61 3.75-2.497 6.03-2.497s4.421.887 6.034 2.502a8.47 8.47 0 0 1 2.499 6.031 8.472 8.472 0 0 1-2.502 6.034z" fill="#b5a377"/></svg>