<svg xmlns="http://www.w3.org/2000/svg" xmlns:xlink="http://www.w3.org/1999/xlink" width="432" height="1968" viewBox="0 0 432 1968"><svg viewBox="NaN 49 141 512 512" width="141" height="512" id="box" y="0"><path d="M442.729 253.971L210.261 141.746a7.503 7.503 0 0 0-6.521 0L-28.729 253.971a7.5 7.5 0 0 0-4.239 6.754v272.549a7.5 7.5 0 0 0 4.239 6.754l232.468 112.226a7.504 7.504 0 0 0 6.522 0l232.468-112.226a7.5 7.5 0 0 0 4.239-6.754V260.726a7.503 7.503 0 0 0-4.239-6.755zM207 156.828l215.217 103.897-62.387 30.118a7.434 7.434 0 0 0-1.27-.8l-213.755-103.19L207 156.828zm-79.133 38.505l214.904 103.746-44.015 21.249L83.941 216.624l43.926-21.291zm178.819 137.823l41.113-19.848v78.546l-41.113 19.848v-78.546zM214.5 633.551V377.659l51.873-25.042a7.5 7.5 0 1 0-6.522-13.508L207 364.624l-20.796-10.04c-3.731-1.803-8.214-.237-10.015 3.493s-.237 8.214 3.493 10.015l19.818 9.567v255.892L-17.968 528.567V272.674l165.6 79.945a7.463 7.463 0 0 0 3.255.748 7.5 7.5 0 0 0 3.266-14.256l-162.37-78.386 74.505-35.968L291.582 333.52c.033.046.07.087.104.132v89.999a7.502 7.502 0 0 0 10.761 6.754l56.113-27.089a7.499 7.499 0 0 0 4.239-6.754v-90.495l69.169-33.392v255.893L214.5 633.551z" fill="#b5a377"></path><path d="M43.926 499.48L9.811 483.011a7.5 7.5 0 0 0-6.522 13.508l34.115 16.469a7.463 7.463 0 0 0 3.255.748 7.5 7.5 0 0 0 6.759-4.241 7.499 7.499 0 0 0-3.492-10.015zM75.323 479.042L9.858 447.438a7.501 7.501 0 0 0-6.521 13.509l65.465 31.604a7.477 7.477 0 0 0 3.255.748 7.501 7.501 0 0 0 3.266-14.257z" fill="#b5a377"></path></svg><svg viewBox="NaN 49 141 512 512" width="141" height="512" id="credit-card" y="512"><path d="M319.226 289.299H-17.452c-17.396 0-31.548 14.152-31.548 31.548v224.452c0 17.396 14.152 31.548 31.548 31.548h336.677c17.396 0 31.549-14.152 31.549-31.548V320.847c0-17.396-14.152-31.548-31.548-31.548zm16.548 256c0 9.124-7.424 16.548-16.549 16.548H-17.452c-9.125 0-16.548-7.424-16.548-16.548V320.847c0-9.125 7.423-16.548 16.548-16.548h336.677c9.125 0 16.549 7.423 16.549 16.548v224.452z" fill="#b5a377"></path><path d="M22.629 440.572h32.064c12.976 0 23.532-10.557 23.532-23.532v-16.032c0-12.976-10.557-23.532-23.532-23.532H22.629c-12.976 0-23.532 10.557-23.532 23.532v16.032c0 12.976 10.556 23.532 23.532 23.532zm40.597-39.564v16.032c0 4.705-3.828 8.532-8.532 8.532h-8.532v-33.097h8.532c4.704.001 8.532 3.828 8.532 8.533zm-49.129 0c0-4.705 3.828-8.532 8.532-8.532h8.532v33.097h-8.532c-4.705 0-8.532-3.827-8.532-8.532v-16.033zM6.597 480.653h48.097c4.142 0 7.5-3.357 7.5-7.5s-3.358-7.5-7.5-7.5H6.597c-4.142 0-7.5 3.357-7.5 7.5s3.358 7.5 7.5 7.5zM86.758 480.653h48.097c4.142 0 7.5-3.357 7.5-7.5s-3.358-7.5-7.5-7.5H86.758c-4.142 0-7.5 3.357-7.5 7.5s3.358 7.5 7.5 7.5zM166.919 505.733H6.597a7.5 7.5 0 0 0-7.5 7.5 7.5 7.5 0 0 0 7.5 7.5H166.92a7.5 7.5 0 1 0-.001-15zM215.016 465.653h-48.097c-4.142 0-7.5 3.357-7.5 7.5s3.358 7.5 7.5 7.5h48.097c4.142 0 7.5-3.357 7.5-7.5s-3.358-7.5-7.5-7.5zM295.177 465.653H247.08c-4.142 0-7.5 3.357-7.5 7.5s3.358 7.5 7.5 7.5h48.097c4.142 0 7.5-3.357 7.5-7.5s-3.358-7.5-7.5-7.5zM263.113 337.396c-13.182 0-24.871 6.486-32.064 16.427-7.194-9.942-18.883-16.427-32.064-16.427-21.816 0-39.564 17.748-39.564 39.564s17.749 39.564 39.564 39.564c13.182 0 24.871-6.486 32.064-16.427 7.194 9.942 18.883 16.427 32.064 16.427 21.816 0 39.564-17.748 39.564-39.564s-17.748-39.564-39.564-39.564zm-64.129 64.128c-13.545 0-24.564-11.02-24.564-24.564s11.02-24.564 24.564-24.564 24.564 11.02 24.564 24.564-11.019 24.564-24.564 24.564zm64.129 0c-13.545 0-24.564-11.02-24.564-24.564s11.02-24.564 24.564-24.564 24.564 11.02 24.564 24.564-11.019 24.564-24.564 24.564z" fill="#b5a377"></path><path d="M431.452 217.153H94.774c-17.396 0-31.549 14.152-31.549 31.548v16.032a7.5 7.5 0 0 0 7.5 7.5H448v33.098h-72.661c-4.142 0-7.5 3.357-7.5 7.5s3.358 7.5 7.5 7.5H448v152.822c0 9.125-7.423 16.548-16.548 16.548h-56.115c-4.142 0-7.5 3.357-7.5 7.5s3.358 7.5 7.5 7.5h56.115c17.396 0 31.548-14.152 31.548-31.548V248.701c0-17.395-14.152-31.548-31.548-31.548zm-353.226 40.08v-8.532c0-9.124 7.424-16.548 16.549-16.548h336.677c9.125 0 16.548 7.424 16.548 16.548v8.532H78.226z" fill="#b5a377"></path></svg><svg viewBox="0 0 432 432" width="432" height="432" id="return" y="1024"><path d="M108.938 97.839c57.839-52.321 144.402-53.118 203.042-5.36l-46.48 1.762c-6 .238-10.641 5.199-10.402 11.199.242 5.84 5.043 10.399 10.8 10.399h.399l71.363-2.637c5.84-.242 10.399-4.961 10.399-10.801v-1.281l-2.641-70.559c-.238-6-5.277-10.64-11.199-10.402-6 .242-10.641 5.199-10.399 11.199L325.5 75.6c-29.043-23.761-64.801-37.519-103.043-39.441-47.359-2.399-92.879 13.84-128 45.68A177.698 177.698 0 0 0 41.02 255.518c1.199 4.961 5.597 8.242 10.48 8.242.879 0 1.68-.082 2.559-.32 5.761-1.441 9.359-7.281 7.921-13.039-13.441-55.68 4.477-114.16 46.958-152.562zm0 0M389.18 176.561c-1.442-5.761-7.282-9.359-13.039-7.922-5.762 1.442-9.364 7.282-7.922 13.039 13.519 55.68-4.481 114.161-46.961 152.563-29.84 26.961-67.278 40.238-104.559 40.238-35.601 0-71.121-12.078-99.761-35.918l47.042-4.242c5.918-.559 10.317-5.758 9.758-11.758-.558-6-5.758-10.32-11.758-9.761l-71.121 6.402c-5.921.558-10.32 5.758-9.761 11.758l6.402 71.121c.48 5.597 5.199 9.84 10.719 9.84.32 0 .64 0 .961-.082 5.918-.559 10.32-5.758 9.758-11.758l-3.84-43.281c29.043 23.519 64.64 37.199 102.64 39.121 3.039.16 6.082.238 9.039.238 44.082 0 86-16.16 118.961-45.918 48.321-43.762 68.801-110.242 53.442-173.68zm0 0" fill="#b2a177"></path></svg><svg viewBox="NaN 49 141 512 512" width="141" height="512" id="shield" y="1456"><path d="M455 212.232a7.5 7.5 0 0 0-5.559-6.843l-240.698-64.136a7.514 7.514 0 0 0-3.865 0l-240.322 64.136A7.503 7.503 0 0 0-41 212.221c-.167 3-3.758 74.526 24.369 164.954C-.1 430.32 24.033 478.844 55.096 521.401c38.858 53.234 88.698 97.185 148.134 130.636a7.497 7.497 0 0 0 7.196.088c59.536-31.624 109.459-74.46 148.38-127.319 31.099-42.237 55.258-90.903 71.806-144.648 28.143-91.403 24.554-164.844 24.388-167.926zM416.12 376.25c-16.08 52.042-39.491 99.117-69.583 139.92-35.099 47.591-79.482 86.764-132.035 116.593v-38.585c68.129-43.011 119.511-103.897 152.726-181.048 27.349-63.523 36.261-123.823 38.921-163.223a7.499 7.499 0 0 0-5.553-7.753l-15.295-4.075a7.501 7.501 0 0 0-3.862 14.496l9.287 2.475c-3.077 38.196-12.153 93.793-37.277 152.148-31.816 73.903-80.874 132.291-145.855 173.619a420.02 420.02 0 0 1-19.119-13.416 7.5 7.5 0 0 0-8.96 12.032 433.468 433.468 0 0 0 19.984 14v39.085c-52.577-31.452-96.972-71.664-132.082-119.684-30.083-41.145-53.484-88.109-69.556-139.584-23.134-74.096-24.266-136.558-24.026-154.811l225.663-60.223v34.259L13.511 242.11a7.502 7.502 0 0 0-5.548 7.782c1.937 27.106 7.389 69.279 22.368 116.267 24.763 77.682 66.353 142.489 123.614 192.622a7.471 7.471 0 0 0 4.939 1.857 7.5 7.5 0 0 0 4.944-13.144c-55.176-48.306-95.282-110.849-119.204-185.89-13.438-42.155-18.972-80.313-21.213-106.608l183.413-48.948 142.195 37.889a7.5 7.5 0 0 0 3.862-14.496l-138.38-36.873v-34.256l225.661 60.129c.248 18.566-.835 82.701-24.042 157.809z" fill="#b5a377"></path><path d="M303.205 309.357c-6.291 0-12.202 2.449-16.641 6.895l-95.597 95.593-52.19-52.186c-4.441-4.448-10.353-6.898-16.643-6.898-6.291 0-12.201 2.449-16.639 6.893a23.38 23.38 0 0 0-6.897 16.643 23.369 23.369 0 0 0 6.895 16.64l68.829 68.83c4.442 4.448 10.353 6.898 16.644 6.898s12.201-2.449 16.641-6.895l112.236-112.236a23.371 23.371 0 0 0 6.897-16.642c0-6.288-2.449-12.198-6.892-16.637-4.442-4.449-10.353-6.898-16.643-6.898zm6.031 29.567L196.995 451.165c-1.608 1.61-3.749 2.497-6.03 2.497s-4.421-.887-6.033-2.5l-68.834-68.835a8.47 8.47 0 0 1-2.499-6.031c0-2.28.888-4.42 2.504-6.037 1.608-1.61 3.75-2.497 6.03-2.497s4.42.887 6.033 2.5l57.497 57.493a7.501 7.501 0 0 0 10.607 0l100.905-100.901c1.608-1.61 3.75-2.497 6.03-2.497s4.421.887 6.034 2.502a8.47 8.47 0 0 1 2.499 6.031 8.472 8.472 0 0 1-2.502 6.034z" fill="#b5a377"></path></svg></svg>