<?xml version="1.0" encoding="iso-8859-1"?>
<!-- Generator: Adobe Illustrator 22.1.0, SVG Export Plug-In . SVG Version: 6.00 Build 0)  -->
<svg version="1.1" id="Capa_1" xmlns="http://www.w3.org/2000/svg" xmlns:xlink="http://www.w3.org/1999/xlink" x="0px" y="0px"
	 viewBox="-49 141 512 512" style="enable-background:new -49 141 512 512;" xml:space="preserve">
<path style="fill:#B5A377;" d="M442.729,253.971L210.261,141.746c-2.061-0.994-4.461-0.994-6.521,0L-28.729,253.971
	c-2.592,1.251-4.239,3.876-4.239,6.754v272.549c0,2.878,1.647,5.503,4.239,6.754l232.468,112.226
	c1.03,0.497,2.146,0.746,3.261,0.746c1.115,0,2.23-0.249,3.261-0.746l232.468-112.226c2.592-1.251,4.239-3.876,4.239-6.754V260.726
	C446.968,257.847,445.32,255.223,442.729,253.971z M207,156.828l215.217,103.897l-62.387,30.118c-0.395-0.301-0.812-0.579-1.27-0.8
	l-213.755-103.19L207,156.828z M127.867,195.333l214.904,103.746l-44.015,21.249L83.941,216.624L127.867,195.333z M306.686,333.156
	l41.113-19.848v78.546l-41.113,19.848V333.156z M214.5,633.551V377.659l51.873-25.042c3.73-1.801,5.294-6.284,3.493-10.015
	c-1.801-3.729-6.284-5.295-10.015-3.493L207,364.624l-20.796-10.04c-3.731-1.803-8.214-0.237-10.015,3.493
	s-0.237,8.214,3.493,10.015l19.818,9.567v255.892L-17.968,528.567V272.674l165.6,79.945c1.051,0.508,2.162,0.748,3.255,0.748
	c2.788,0,5.466-1.562,6.759-4.241c1.801-3.73,0.237-8.214-3.493-10.015l-162.37-78.386l74.505-35.968L291.582,333.52
	c0.033,0.046,0.07,0.087,0.104,0.132v89.999c0,2.581,1.327,4.98,3.513,6.353c1.214,0.762,2.599,1.147,3.988,1.147
	c1.112,0,2.227-0.247,3.26-0.746l56.113-27.089c2.592-1.251,4.239-3.875,4.239-6.754v-90.495l69.169-33.392v255.893L214.5,633.551z"
	/>
<path style="fill:#B5A377;" d="M43.926,499.48L9.811,483.011c-3.732-1.803-8.214-0.237-10.015,3.493s-0.237,8.214,3.493,10.015
	l34.115,16.469c1.051,0.508,2.162,0.748,3.255,0.748c2.788,0,5.466-1.562,6.759-4.241C49.22,505.764,47.656,501.281,43.926,499.48z"
	/>
<path style="fill:#B5A377;" d="M75.323,479.042L9.858,447.438c-3.731-1.801-8.214-0.237-10.015,3.494
	c-1.8,3.73-0.236,8.214,3.494,10.015l65.465,31.604c1.051,0.507,2.162,0.748,3.255,0.748c2.788,0,5.466-1.562,6.759-4.241
	C80.617,485.327,79.053,480.843,75.323,479.042z"/>
</svg>
