<?xml version="1.0" encoding="iso-8859-1"?>
<!-- Generator: Adobe Illustrator 22.1.0, SVG Export Plug-In . SVG Version: 6.00 Build 0)  -->
<svg version="1.1" id="Capa_1" xmlns="http://www.w3.org/2000/svg" xmlns:xlink="http://www.w3.org/1999/xlink" x="0px" y="0px"
	 viewBox="-49 141 512 512" style="enable-background:new -49 141 512 512;" xml:space="preserve">
<path style="fill:#B5A377;" d="M319.226,289.299H-17.452c-17.396,0-31.548,14.152-31.548,31.548v224.452
	c0,17.396,14.152,31.548,31.548,31.548h336.677c17.396,0,31.549-14.152,31.549-31.548V320.847
	C350.774,303.451,336.622,289.299,319.226,289.299z M335.774,545.299c0,9.124-7.424,16.548-16.549,16.548H-17.452
	c-9.125,0-16.548-7.424-16.548-16.548V320.847c0-9.125,7.423-16.548,16.548-16.548h336.677c9.125,0,16.549,7.423,16.549,16.548
	L335.774,545.299L335.774,545.299z"/>
<path style="fill:#B5A377;" d="M22.629,440.572h32.064c12.976,0,23.532-10.557,23.532-23.532v-16.032
	c0-12.976-10.557-23.532-23.532-23.532H22.629c-12.976,0-23.532,10.557-23.532,23.532v16.032
	C-0.903,430.016,9.653,440.572,22.629,440.572z M63.226,401.008v16.032c0,4.705-3.828,8.532-8.532,8.532h-8.532v-33.097h8.532
	C59.398,392.476,63.226,396.303,63.226,401.008z M14.097,401.008c0-4.705,3.828-8.532,8.532-8.532h8.532v33.097h-8.532
	c-4.705,0-8.532-3.827-8.532-8.532V401.008z"/>
<path style="fill:#B5A377;" d="M6.597,480.653h48.097c4.142,0,7.5-3.357,7.5-7.5s-3.358-7.5-7.5-7.5H6.597
	c-4.142,0-7.5,3.357-7.5,7.5S2.455,480.653,6.597,480.653z"/>
<path style="fill:#B5A377;" d="M86.758,480.653h48.097c4.142,0,7.5-3.357,7.5-7.5s-3.358-7.5-7.5-7.5H86.758
	c-4.142,0-7.5,3.357-7.5,7.5S82.616,480.653,86.758,480.653z"/>
<path style="fill:#B5A377;" d="M166.919,505.733H6.597c-4.142,0-7.5,3.357-7.5,7.5c0,4.143,3.358,7.5,7.5,7.5H166.92
	c4.142,0,7.5-3.357,7.5-7.5C174.42,509.09,171.062,505.733,166.919,505.733z"/>
<path style="fill:#B5A377;" d="M215.016,465.653h-48.097c-4.142,0-7.5,3.357-7.5,7.5s3.358,7.5,7.5,7.5h48.097
	c4.142,0,7.5-3.357,7.5-7.5S219.158,465.653,215.016,465.653z"/>
<path style="fill:#B5A377;" d="M295.177,465.653H247.08c-4.142,0-7.5,3.357-7.5,7.5s3.358,7.5,7.5,7.5h48.097
	c4.142,0,7.5-3.357,7.5-7.5S299.319,465.653,295.177,465.653z"/>
<path style="fill:#B5A377;" d="M263.113,337.396c-13.182,0-24.871,6.486-32.064,16.427c-7.194-9.942-18.883-16.427-32.064-16.427
	c-21.816,0-39.564,17.748-39.564,39.564s17.749,39.564,39.564,39.564c13.182,0,24.871-6.486,32.064-16.427
	c7.194,9.942,18.883,16.427,32.064,16.427c21.816,0,39.564-17.748,39.564-39.564S284.929,337.396,263.113,337.396z M198.984,401.524
	c-13.545,0-24.564-11.02-24.564-24.564s11.02-24.564,24.564-24.564s24.564,11.02,24.564,24.564S212.529,401.524,198.984,401.524z
	 M263.113,401.524c-13.545,0-24.564-11.02-24.564-24.564s11.02-24.564,24.564-24.564s24.564,11.02,24.564,24.564
	S276.658,401.524,263.113,401.524z"/>
<path style="fill:#B5A377;" d="M431.452,217.153H94.774c-17.396,0-31.549,14.152-31.549,31.548v16.032c0,4.143,3.358,7.5,7.5,7.5
	H448v33.098h-72.661c-4.142,0-7.5,3.357-7.5,7.5s3.358,7.5,7.5,7.5H448v152.822c0,9.125-7.423,16.548-16.548,16.548h-56.115
	c-4.142,0-7.5,3.357-7.5,7.5s3.358,7.5,7.5,7.5h56.115c17.396,0,31.548-14.152,31.548-31.548V248.701
	C463,231.306,448.848,217.153,431.452,217.153z M78.226,257.233v-8.532c0-9.124,7.424-16.548,16.549-16.548h336.677
	c9.125,0,16.548,7.424,16.548,16.548v8.532H78.226z"/>
</svg>
