<?xml version="1.0" encoding="iso-8859-1"?>
<!-- Generator: Adobe Illustrator 22.1.0, SVG Export Plug-In . SVG Version: 6.00 Build 0)  -->
<svg version="1.1" id="&#x421;&#x43B;&#x43E;&#x439;_1"
	 xmlns="http://www.w3.org/2000/svg" xmlns:xlink="http://www.w3.org/1999/xlink" x="0px" y="0px" viewBox="0 0 432 432"
	 style="enable-background:new 0 0 432 432;" xml:space="preserve">
<path style="fill:#B2A177;" d="M108.938,97.839c57.839-52.321,144.402-53.118,203.042-5.36l-46.48,1.762
	c-6,0.238-10.641,5.199-10.402,11.199c0.242,5.84,5.043,10.399,10.8,10.399h0.399l71.363-2.637
	c5.84-0.242,10.399-4.961,10.399-10.801v-1.281l-2.641-70.559c-0.238-6-5.277-10.64-11.199-10.402
	c-6,0.242-10.641,5.199-10.399,11.199L325.5,75.6c-29.043-23.761-64.801-37.519-103.043-39.441
	c-47.359-2.399-92.879,13.84-128,45.68C46.141,125.6,25.66,192.159,41.02,255.518c1.199,4.961,5.597,8.242,10.48,8.242
	c0.879,0,1.68-0.082,2.559-0.32c5.761-1.441,9.359-7.281,7.921-13.039C48.539,194.721,66.457,136.241,108.938,97.839L108.938,97.839
	z M108.938,97.839"/>
<path style="fill:#B2A177;" d="M389.18,176.561c-1.442-5.761-7.282-9.359-13.039-7.922c-5.762,1.442-9.364,7.282-7.922,13.039
	c13.519,55.68-4.481,114.161-46.961,152.563c-29.84,26.961-67.278,40.238-104.559,40.238c-35.601,0-71.121-12.078-99.761-35.918
	l47.042-4.242c5.918-0.559,10.317-5.758,9.758-11.758c-0.558-6-5.758-10.32-11.758-9.761l-71.121,6.402
	c-5.921,0.558-10.32,5.758-9.761,11.758l6.402,71.121c0.48,5.597,5.199,9.84,10.719,9.84c0.32,0,0.64,0,0.961-0.082
	c5.918-0.559,10.32-5.758,9.758-11.758l-3.84-43.281c29.043,23.519,64.64,37.199,102.64,39.121c3.039,0.16,6.082,0.238,9.039,0.238
	c44.082,0,86-16.16,118.961-45.918C384.059,306.479,404.539,239.999,389.18,176.561L389.18,176.561z M389.18,176.561"/>
</svg>
