<?xml version="1.0" encoding="iso-8859-1"?>
<!-- Generator: Adobe Illustrator 22.1.0, SVG Export Plug-In . SVG Version: 6.00 Build 0)  -->
<svg version="1.1" id="Capa_1" xmlns="http://www.w3.org/2000/svg" xmlns:xlink="http://www.w3.org/1999/xlink" x="0px" y="0px"
	 viewBox="-49 141 512 512" style="enable-background:new -49 141 512 512;" xml:space="preserve">
<path style="fill:#B5A377;" d="M455,212.232c-0.175-3.244-2.419-6.007-5.559-6.843l-240.698-64.136
	c-1.267-0.337-2.599-0.337-3.865,0l-240.322,64.136c-3.134,0.837-5.376,3.593-5.556,6.832c-0.167,3-3.758,74.526,24.369,164.954
	C-0.1,430.32,24.033,478.844,55.096,521.401c38.858,53.234,88.698,97.185,148.134,130.636c1.141,0.642,2.409,0.964,3.678,0.964
	c1.208,0,2.417-0.292,3.518-0.876c59.536-31.624,109.459-74.46,148.38-127.319c31.099-42.237,55.258-90.903,71.806-144.648
	C458.755,288.755,455.166,215.314,455,212.232z M416.12,376.25c-16.08,52.042-39.491,99.117-69.583,139.92
	c-35.099,47.591-79.482,86.764-132.035,116.593v-38.585c68.129-43.011,119.511-103.897,152.726-181.048
	c27.349-63.523,36.261-123.823,38.921-163.223c0.242-3.58-2.085-6.83-5.553-7.753l-15.295-4.075
	c-4.001-1.066-8.112,1.313-9.179,5.317c-1.066,4.002,1.313,8.113,5.317,9.179l9.287,2.475
	c-3.077,38.196-12.153,93.793-37.277,152.148c-31.816,73.903-80.874,132.291-145.855,173.619
	c-6.523-4.313-12.938-8.814-19.119-13.416c-3.321-2.474-8.021-1.787-10.496,1.536c-2.474,3.322-1.787,8.022,1.536,10.496
	c6.459,4.81,13.168,9.499,19.984,14v39.085c-52.577-31.452-96.972-71.664-132.082-119.684
	C37.334,471.689,13.933,424.725-2.139,373.25c-23.134-74.096-24.266-136.558-24.026-154.811l225.663-60.223v34.259L13.511,242.11
	c-3.476,0.928-5.804,4.193-5.548,7.782c1.937,27.106,7.389,69.279,22.368,116.267c24.763,77.682,66.353,142.489,123.614,192.622
	c1.423,1.246,3.184,1.857,4.939,1.857c2.087,0,4.163-0.866,5.647-2.56c2.729-3.117,2.414-7.856-0.703-10.584
	c-55.176-48.306-95.282-110.849-119.204-185.89c-13.438-42.155-18.972-80.313-21.213-106.608l183.413-48.948l142.195,37.889
	c4.003,1.065,8.113-1.313,9.179-5.317c1.066-4.002-1.313-8.113-5.317-9.179l-138.38-36.873v-34.256l225.661,60.129
	C440.41,237.007,439.327,301.142,416.12,376.25z"/>
<path style="fill:#B5A377;" d="M303.205,309.357L303.205,309.357c-6.291,0-12.202,2.449-16.641,6.895l-95.597,95.593l-52.19-52.186
	c-4.441-4.448-10.353-6.898-16.643-6.898l0,0c-6.291,0-12.201,2.449-16.639,6.893c-4.446,4.444-6.897,10.355-6.897,16.643
	c0,6.288,2.449,12.197,6.895,16.64l68.829,68.83c4.442,4.448,10.353,6.898,16.644,6.898s12.201-2.449,16.641-6.895l112.236-112.236
	c4.447-4.443,6.897-10.354,6.897-16.642c0-6.288-2.449-12.198-6.892-16.637C315.406,311.806,309.495,309.357,303.205,309.357z
	 M309.236,338.924L196.995,451.165c-1.608,1.61-3.749,2.497-6.03,2.497s-4.421-0.887-6.033-2.5l-68.834-68.835
	c-1.611-1.61-2.499-3.751-2.499-6.031s0.888-4.42,2.504-6.037c1.608-1.61,3.75-2.497,6.03-2.497s4.42,0.887,6.033,2.5l57.497,57.493
	c2.929,2.929,7.679,2.928,10.607,0l100.905-100.901c1.608-1.61,3.75-2.497,6.03-2.497s4.421,0.887,6.034,2.502
	c1.611,1.61,2.499,3.752,2.499,6.031C311.738,335.169,310.85,337.312,309.236,338.924z"/>
</svg>
